# xmcd CD database file
#
# Track frame offsets:
#	150
#	16167
#	35782
#	53795
#	71080
#	89070
#	105900
#	125707
#	151690
#	165825
#	182717
#	201955
#	216950
#	231272
#	246752
#	260995
#	276900
#
# Disc length: 3924 seconds
#
# Revision: 0
# Processed by: cddbd v1.5.1PL2 Copyright (c) Steve Scherf et al.
# Submitted via: CDex 1.51
#
DISCID=f60f5211
DTITLE=Various Artist - promo radio Sony Music no.0032
DYEAR=1991
DGENRE=Pop Rock
TTITLE0=Henry Lee Summer  -  till somebody loves you (top 40 mix)
TTITLE1=Fabulous Thunderbirds  -  twist of the knife
TTITLE2=Seven Stories  -  sleeping through another war
TTITLE3=Psychedelic Furs  -  until she comes
TTITLE4=Keven Jordan  -  just another day  (radio edit)
TTITLE5=Gregory Hoskins and The Stickpeople  -  for you
TTITLE6=Martika  -  love....thy will be done
TTITLE7=Peter Himmelman  -  only innocent
TTITLE8=Big Audio Dynamite II  -  rush (single version)
TTITLE9=The Lost  -  pretty girl
TTITLE10=Dream Police  -  need your lovin'
TTITLE11=Vern Gosdin  -  The Garden
TTITLE12=Dolly Parton  -  eagle when she flies
TTITLE13=Ricky Scaggs  -  life's too long (to live like this)
TTITLE14=Collin Raye  -  all i can be (is a sweet memory)
TTITLE15=Boule Noire  -  j'étais seul
TTITLE16=Frédéricks,Goldman,Jones  -  né en 17 à Leidenstadt
EXTD=YEAR: 1991
EXTT0=
EXTT1=
EXTT2=
EXTT3=
EXTT4=
EXTT5=
EXTT6=
EXTT7=
EXTT8=
EXTT9=
EXTT10=
EXTT11=
EXTT12=
EXTT13=
EXTT14=
EXTT15=
EXTT16=
PLAYORDER=
